<svg width="15" height="20" viewBox="0 0 15 20" fill="none" xmlns="http://www.w3.org/2000/svg">
    <path d="M7.56515 0.151057C7.26345 0.0187814 6.9663 0.111318 6.77515 0.305992C6.58946 0.495097 6.49659 0.783714 6.5617 1.07471C6.66448 1.53402 6.71875 2.01189 6.71875 2.50274C6.71875 3.62341 6.4363 4.40832 5.95031 5.05899C5.45628 5.72043 4.74113 6.25892 3.83819 6.86651C3.82399 6.87606 3.81078 6.88699 3.79872 6.89913L3.68936 7.00934C1.75203 8.26095 0.46875 10.4402 0.46875 12.9194C0.46875 16.8027 3.61675 19.9507 7.5 19.9507C11.3833 19.9507 14.5312 16.8027 14.5312 12.9194C14.5312 11.7792 14.2597 10.7018 13.7774 9.74882C13.7382 9.6713 13.6629 9.61845 13.5767 9.60791C13.4904 9.59737 13.4046 9.63054 13.3479 9.69634C13.2744 9.78149 13.2025 9.86554 13.1316 9.94835C12.2167 11.0173 11.4784 11.8799 9.96475 12.2653C9.90038 12.2817 9.86039 12.2695 9.83201 12.2517C9.79862 12.2309 9.76208 12.1892 9.73705 12.1227C9.68487 11.984 9.70726 11.8072 9.81417 11.6913C10.6237 10.8136 11.1988 9.6221 11.4044 7.92719C11.7893 4.7523 10.3463 1.37043 7.56515 0.151057Z" fill="url(#paint0_linear_3196_13)"/>
    <defs>
        <linearGradient id="paint0_linear_3196_13" x1="7.5" y1="0.0891113" x2="7.5" y2="19.9507" gradientUnits="userSpaceOnUse">
            <stop stop-color="#FFC736"/>
            <stop offset="1" stop-color="#FF630C"/>
        </linearGradient>
    </defs>
</svg>