<svg width="13" height="15" viewBox="0 0 13 15" fill="none" xmlns="http://www.w3.org/2000/svg">
    <path fill-rule="evenodd" clip-rule="evenodd" d="M2.4271 2.89583C2.4271 1.62443 3.45778 0.59375 4.72919 0.59375C5.44122 0.59375 6.07775 0.91701 6.50002 1.42478C6.9223 0.91701 7.55882 0.59375 8.27085 0.59375C9.54226 0.59375 10.5729 1.62443 10.5729 2.89583C10.5729 3.4301 10.3909 3.92187 10.0855 4.3125H10.75C11.728 4.3125 12.5209 5.10533 12.5209 6.08333V6.96875C12.5209 7.26215 12.283 7.5 11.9896 7.5H7.24377C7.12641 7.5 7.03127 7.40486 7.03127 7.2875V4.83602C6.83085 4.70771 6.65163 4.54919 6.50002 4.36689C6.34842 4.54919 6.16919 4.70771 5.96877 4.83602V7.2875C5.96877 7.40486 5.87363 7.5 5.75627 7.5H1.01044C0.717036 7.5 0.479187 7.26215 0.479187 6.96875V6.08333C0.479187 5.10533 1.27202 4.3125 2.25002 4.3125H2.91449C2.60911 3.92187 2.4271 3.4301 2.4271 2.89583ZM5.96877 2.89583C5.96877 2.21123 5.41379 1.65625 4.72919 1.65625C4.04458 1.65625 3.4896 2.21123 3.4896 2.89583C3.4896 3.58044 4.04458 4.13542 4.72919 4.13542C5.41379 4.13542 5.96877 3.58044 5.96877 2.89583ZM7.03127 2.89583C7.03127 3.58044 7.58625 4.13542 8.27085 4.13542C8.95546 4.13542 9.51044 3.58044 9.51044 2.89583C9.51044 2.21123 8.95546 1.65625 8.27085 1.65625C7.58625 1.65625 7.03127 2.21123 7.03127 2.89583Z" fill="#0079F0"/>
    <path fill-rule="evenodd" clip-rule="evenodd" d="M2.4271 2.89583C2.4271 1.62443 3.45778 0.59375 4.72919 0.59375C5.44122 0.59375 6.07775 0.91701 6.50002 1.42478C6.9223 0.91701 7.55882 0.59375 8.27085 0.59375C9.54226 0.59375 10.5729 1.62443 10.5729 2.89583C10.5729 3.4301 10.3909 3.92187 10.0855 4.3125H10.75C11.728 4.3125 12.5209 5.10533 12.5209 6.08333V6.96875C12.5209 7.26215 12.283 7.5 11.9896 7.5H7.24377C7.12641 7.5 7.03127 7.40486 7.03127 7.2875V4.83602C6.83085 4.70771 6.65163 4.54919 6.50002 4.36689C6.34842 4.54919 6.16919 4.70771 5.96877 4.83602V7.2875C5.96877 7.40486 5.87363 7.5 5.75627 7.5H1.01044C0.717036 7.5 0.479187 7.26215 0.479187 6.96875V6.08333C0.479187 5.10533 1.27202 4.3125 2.25002 4.3125H2.91449C2.60911 3.92187 2.4271 3.4301 2.4271 2.89583ZM5.96877 2.89583C5.96877 2.21123 5.41379 1.65625 4.72919 1.65625C4.04458 1.65625 3.4896 2.21123 3.4896 2.89583C3.4896 3.58044 4.04458 4.13542 4.72919 4.13542C5.41379 4.13542 5.96877 3.58044 5.96877 2.89583ZM7.03127 2.89583C7.03127 3.58044 7.58625 4.13542 8.27085 4.13542C8.95546 4.13542 9.51044 3.58044 9.51044 2.89583C9.51044 2.21123 8.95546 1.65625 8.27085 1.65625C7.58625 1.65625 7.03127 2.21123 7.03127 2.89583Z" fill="url(#paint0_linear_3302_20)"/>
    <path d="M5.96877 8.66875C5.96877 8.55139 5.87363 8.45625 5.75627 8.45625H2.00141C1.71407 8.45625 1.46853 8.66329 1.42 8.9465C1.26272 9.86437 1.26272 10.8023 1.42 11.7202L1.57889 12.6474C1.68587 13.2717 2.19293 13.75 2.82244 13.8204L3.5769 13.9047C4.30005 13.9855 5.0257 14.0362 5.752 14.0569C5.87099 14.0603 5.96877 13.9644 5.96877 13.8453L5.96877 8.66875Z" fill="#0079F0"/>
    <path d="M5.96877 8.66875C5.96877 8.55139 5.87363 8.45625 5.75627 8.45625H2.00141C1.71407 8.45625 1.46853 8.66329 1.42 8.9465C1.26272 9.86437 1.26272 10.8023 1.42 11.7202L1.57889 12.6474C1.68587 13.2717 2.19293 13.75 2.82244 13.8204L3.5769 13.9047C4.30005 13.9855 5.0257 14.0362 5.752 14.0569C5.87099 14.0603 5.96877 13.9644 5.96877 13.8453L5.96877 8.66875Z" fill="url(#paint1_linear_3302_20)"/>
    <path d="M7.24804 14.0569C7.12905 14.0603 7.03127 13.9644 7.03127 13.8453L7.03127 8.66875C7.03127 8.55139 7.12641 8.45625 7.24377 8.45625H10.9986C11.286 8.45625 11.5315 8.66329 11.58 8.9465C11.7373 9.86437 11.7373 10.8023 11.58 11.7202L11.4211 12.6474C11.3142 13.2717 10.8071 13.75 10.1776 13.8204L9.42314 13.9047C8.7 13.9855 7.97434 14.0362 7.24804 14.0569Z" fill="#0079F0"/>
    <path d="M7.24804 14.0569C7.12905 14.0603 7.03127 13.9644 7.03127 13.8453L7.03127 8.66875C7.03127 8.55139 7.12641 8.45625 7.24377 8.45625H10.9986C11.286 8.45625 11.5315 8.66329 11.58 8.9465C11.7373 9.86437 11.7373 10.8023 11.58 11.7202L11.4211 12.6474C11.3142 13.2717 10.8071 13.75 10.1776 13.8204L9.42314 13.9047C8.7 13.9855 7.97434 14.0362 7.24804 14.0569Z" fill="url(#paint2_linear_3302_20)"/>
    <defs>
        <linearGradient id="paint0_linear_3302_20" x1="6.50002" y1="0.59375" x2="6.50002" y2="14.057" gradientUnits="userSpaceOnUse">
            <stop stop-color="#FF9900"/>
            <stop offset="1" stop-color="#FF630C"/>
        </linearGradient>
        <linearGradient id="paint1_linear_3302_20" x1="6.50002" y1="0.59375" x2="6.50002" y2="14.057" gradientUnits="userSpaceOnUse">
            <stop stop-color="#FF9900"/>
            <stop offset="1" stop-color="#FF630C"/>
        </linearGradient>
        <linearGradient id="paint2_linear_3302_20" x1="6.50002" y1="0.59375" x2="6.50002" y2="14.057" gradientUnits="userSpaceOnUse">
            <stop stop-color="#FF9900"/>
            <stop offset="1" stop-color="#FF630C"/>
        </linearGradient>
    </defs>
</svg>
