<svg width="112" height="37" viewBox="0 0 112 37" fill="none" xmlns="http://www.w3.org/2000/svg">
    <g clip-path="url(#clip0_1_9472)">
        <path d="M74.1319 12.5817L68.2246 36.3807H77.8088L83.9528 11.585L74.1319 12.5817Z" fill="white"/>
        <path d="M105.727 11.5372C102.871 11.2595 98.4136 12.132 96.2111 13.7961C96.1606 12.8855 95.992 12.1699 95.7958 11.4375L87.3127 12.4674C87.65 14.8152 87.3176 17.4206 86.4845 20.9263L82.6836 36.3816H92.2676L96.1908 20.6128C97.1514 19.2449 98.6779 18.3302 99.9684 18.3302C101.565 18.3302 101.955 19.4896 101.459 21.3916L97.7767 36.3816H107.361L111.474 20.1014C112.454 15.6884 111.009 12.0511 105.727 11.5372Z" fill="white"/>
        <path d="M85.5246 4.86696C85.5246 2.31414 83.2753 0.234375 80.3986 0.234375C77.469 0.234375 75.0625 2.31396 75.0625 4.86696C75.0625 7.41922 77.4169 9.50047 80.2414 9.50047C83.17 9.50065 85.5246 7.4194 85.5246 4.86696Z" fill="#FFD300"/>
        <path fill-rule="evenodd" clip-rule="evenodd" d="M62.5412 11.8422L59.5114 18.7862C58.3903 21.3949 57.4073 23.8513 56.5444 26.2611L56.4266 11.8422H47.7776L40.6127 26.3821L41.388 11.5098L31.8594 12.6875L33.7869 36.3815H42.2149C42.2149 36.3815 48.6079 23.5973 49.1804 22.1173L49.2657 36.3815H57.913L72.1812 11.8422H62.5412Z" fill="white"/>
        <path fill-rule="evenodd" clip-rule="evenodd" d="M21.5412 11.2237C19.0528 11.2237 17.1897 11.8703 16.0924 12.4764C17.6597 7.65991 18.0093 3.21417 18.0093 3.21417L18.0088 3.21473C18.076 2.49304 18.0915 1.63464 18.0719 1.06836L8.02807 2.27881C8.14101 3.87592 7.9045 6.40061 6.61351 11.7948L1.76615 31.6738C1.54607 32.6251 0.995407 34.4324 0.554688 35.0976C3.58429 36.0966 7.05461 37.0002 12.7827 37.0002C15.923 37.0002 18.4015 36.4291 20.9355 34.9546C25.2871 32.4346 27.9736 27.8967 29.0852 23.4939C31.1641 15.2632 27.7655 11.2237 21.5412 11.2237ZM19.0076 23.9223C17.9057 28.4874 16.4732 30.5322 14.0499 30.5322C13.0586 30.5322 12.2322 30.2939 11.792 29.9615L14.4354 19.0711C14.9314 18.6432 15.8128 17.8821 17.2453 17.8821C19.3933 17.8819 20.164 19.0709 19.0076 23.9223Z" fill="white"/>
    </g>
    <defs>
        <clipPath id="clip0_1_9472">
            <rect width="112" height="37" fill="white"/>
        </clipPath>
    </defs>
</svg>
